<?xml version="1.0" encoding="UTF-8"?>
<svg width="14px" height="16px" viewBox="0 0 14 16" version="1.1" xmlns="http://www.w3.org/2000/svg" xmlns:xlink="http://www.w3.org/1999/xlink">
    <!-- Generator: Sketch 49 (51002) - http://www.bohemiancoding.com/sketch -->
    <title>Group</title>
    <desc>Created with Sketch.</desc>
    <defs>
        <polygon id="path-1" points="0.00117154812 0.00386610879 11.9966137 0.00386610879 11.9966137 13.9999805 0.00117154812 13.9999805"></polygon>
    </defs>
    <g id="Page-1" stroke="none" stroke-width="1" fill="none" fill-rule="evenodd">
        <g id="1-侧边栏" transform="translate(-24.000000, -203.000000)">
            <g id="Group-29">
                <g id="Group-51" transform="translate(0.000000, 80.000000)">
                    <g id="Group" transform="translate(24.000000, 123.000000)">
                        <g id="Group-4" transform="translate(0.000000, 2.011158)">
                            <mask id="mask-2" fill="white">
                                <use xlink:href="#path-1"></use>
                            </mask>
                            <g id="Clip-2"></g>
                            <path d="M5.55784379,8.73900697 C5.57500697,8.77179079 5.5968954,8.80299303 5.62190795,8.83112971 C5.62343096,8.83267225 5.62343096,8.83427336 5.62495397,8.83427336 C5.6280781,8.8389205 5.63280335,8.84204463 5.635947,8.84676987 L5.64371827,8.85456067 L5.65156764,8.86233194 C5.65623431,8.86545607 5.65935844,8.87018131 5.66400558,8.87332497 C5.66560669,8.87484798 5.66712971,8.87484798 5.66712971,8.87644909 C5.71717434,8.92174895 5.77651325,8.9545523 5.83897629,8.97483961 L5.84057741,8.97483961 C5.84682566,8.97644073 5.85309344,8.97948675 5.86086471,8.98108787 C5.86238773,8.98108787 5.86398884,8.98261088 5.86551185,8.98261088 C5.87025662,8.98421199 5.87650488,8.98573501 5.88115202,8.98733612 C5.88427615,8.98733612 5.8874198,8.98887866 5.88902092,8.98887866 C5.89366806,8.99047978 5.89679219,8.99047978 5.90143933,8.99200279 C5.90456346,8.99200279 5.90930823,8.99360391 5.91243236,8.99360391 C5.91555649,8.99360391 5.91868061,8.99512692 5.92332775,8.99512692 C5.92807252,8.99512692 5.93271967,8.99672803 5.93736681,8.99672803 C5.94049093,8.99672803 5.94361506,8.99672803 5.94675872,8.99825105 C5.95148396,8.99825105 5.9561311,8.99985216 5.96085635,8.99985216 L6.0327113,8.99985216 C6.03735844,8.99985216 6.04208368,8.99825105 6.04675035,8.99825105 C6.04987448,8.99825105 6.05299861,8.99825105 6.05612273,8.99672803 C6.06076987,8.99672803 6.06551464,8.99512692 6.07016179,8.99512692 C6.07328591,8.99512692 6.07641004,8.99360391 6.08113529,8.99360391 C6.08427894,8.99360391 6.08892608,8.99200279 6.09205021,8.99200279 C6.09669735,8.99047978 6.09982148,8.99047978 6.10456625,8.98887866 C6.10769038,8.98887866 6.1108145,8.98733612 6.11233752,8.98733612 C6.11706276,8.98573501 6.12333054,8.98421199 6.12797768,8.98261088 C6.1295788,8.98261088 6.13110181,8.98108787 6.13262483,8.98108787 C6.13887308,8.97948675 6.14514086,8.97796374 6.15299024,8.97483961 L6.15451325,8.97483961 C6.21697629,8.9545523 6.27639331,8.92014784 6.32635983,8.87644909 C6.32788285,8.87484798 6.32948396,8.87484798 6.32948396,8.87332497 C6.3341311,8.87018131 6.33727476,8.86545607 6.342,8.86233194 L6.34977127,8.85456067 L6.35764017,8.84676987 C6.3607643,8.84204463 6.36541144,8.8389205 6.36853556,8.83427336 C6.37005858,8.83267225 6.37005858,8.83112971 6.37165969,8.83112971 C6.39669177,8.80299303 6.41850209,8.77179079 6.43574338,8.73900697 L8.92877824,4.42144212 C9.06622036,4.18238773 8.98499303,3.87624268 8.74603626,3.73880056 C8.50700139,3.59975732 8.20083682,3.68258577 8.0633947,3.92154254 L5.99830683,7.50177406 L3.93169596,3.92314365 C3.79265272,3.68410879 3.48810879,3.60135844 3.24905439,3.74040167 C3.01009763,3.87784379 2.92734728,4.18398884 3.06631241,4.42296513 L5.55784379,8.73900697 Z M2.99920223,11.0008759 L8.99750907,11.0008759 C9.27399442,11.0008759 9.49731102,10.7774616 9.49731102,10.5009763 C9.49731102,10.2244909 9.27399442,10.0010767 8.99750907,10.0010767 L2.99920223,10.0010767 C2.72269735,10.0010767 2.49930265,10.2244909 2.49930265,10.5009763 C2.49930265,10.7774616 2.72269735,11.0008759 2.99920223,11.0008759 Z" id="Fill-1" fill="#FFFFFF" mask="url(#mask-2)"></path>
                            <path d="M10.9969121,0.00386610879 L0.999701534,0.00386610879 C0.448331939,0.00386610879 0,0.452198047 0,1.00366527 L0,13.0002789 C0,13.5516485 0.448331939,13.9999805 0.999701534,13.9999805 L10.9969121,13.9999805 C11.5483598,13.9999805 11.9966137,13.5516485 11.9966137,13.0002789 L11.9966137,1.00366527 C11.9966137,0.452198047 11.5483598,0.00386610879 10.9969121,0.00386610879 Z M0.999701534,13.0002789 L10.9969121,13.0002789 L10.9969121,1.00366527 L0.999701534,1.00366527 L0.999701534,13.0002789 Z" id="Fill-3" fill="#FFFFFF" mask="url(#mask-2)"></path>
                        </g>
                        <path d="M12.9964128,0.0156206416 L2.49930265,0.0156206416 C2.22281729,0.0156206416 1.99940307,0.239015342 1.99940307,0.515520223 C1.99940307,0.792005579 2.22281729,1.01532218 2.49930265,1.01532218 L12.9964128,1.01532218 L12.9964128,13.5118354 C12.9964128,13.7883208 13.2197294,14.011735 13.4962148,14.011735 C13.7727001,14.011735 13.9961144,13.7883208 13.9961144,13.5118354 L13.9961144,1.01532218 C13.9961144,0.46395258 13.5477824,0.0156206416 12.9964128,0.0156206416 Z" id="Fill-5" fill="#FFFFFF"></path>
                    </g>
                </g>
            </g>
        </g>
    </g>
</svg>