<?xml version="1.0" encoding="UTF-8"?>
<svg width="26px" height="27px" viewBox="0 0 26 27" version="1.1" xmlns="http://www.w3.org/2000/svg" xmlns:xlink="http://www.w3.org/1999/xlink">
    <!-- Generator: Sketch 49 (51002) - http://www.bohemiancoding.com/sketch -->
    <title>Group</title>
    <desc>Created with Sketch.</desc>
    <defs>
        <polygon id="path-1" points="0 0.294643322 24.6985488 0.294643322 24.6985488 15.8438555 0 15.8438555"></polygon>
    </defs>
    <g id="Page-1" stroke="none" stroke-width="1" fill="none" fill-rule="evenodd">
        <g id="1-侧边栏" transform="translate(-24.000000, -19.000000)">
            <g id="Group-29">
                <g id="Group" transform="translate(24.000000, 19.000000)">
                    <g id="Group-3" transform="translate(0.000000, 0.319152)">
                        <mask id="mask-2" fill="white">
                            <use xlink:href="#path-1"></use>
                        </mask>
                        <g id="Clip-2"></g>
                        <path d="M24.6985488,8.15823409 L12.9519907,8.30121136 C9.70622326,9.300825 8.54166512,12.9096205 6.28450233,15.1592114 C4.66101395,16.3386205 2.26236279,15.5881432 0.251897674,15.8029159 C-0.807451163,10.3728477 1.52287442,5.014575 6.28450233,2.12066591 C10.1288744,-0.451084091 16.2328279,-0.272515909 19.9719907,2.442825 C22.0175256,3.87198409 23.7806884,5.97859773 24.6985488,8.15823409" id="Fill-1" fill="#D41A19" mask="url(#mask-2)"></path>
                    </g>
                    <path d="M25.439307,11.0493818 C21.6294,11.7998591 16.2328884,9.44165455 14.0803302,13.8352909 C12.387307,15.5497909 11.5051209,18.6940636 8.68321395,18.6940636 L0.992051163,18.6940636 L0.498051163,17.4796773 L8.50484186,17.4078818 C9.42391163,17.1587455 10.2704233,16.4788364 10.8339581,15.6222 C12.5989349,13.6935409 13.5863302,10.5854727 16.3024233,9.90617727 L25.1926093,9.90617727 L25.439307,11.0493818 Z" id="Fill-4" fill="#D41A19"></path>
                    <path d="M25.6516,12.4786023 C25.757414,12.835125 25.6860651,13.2996477 25.6860651,13.6929886 L20.6771349,13.7641705 C18.5965302,15.3356932 17.3969023,17.7301023 15.7383442,19.7293295 L16.1265302,20.1226705 L23.9924372,20.1226705 C21.453507,24.4813295 17.0081116,26.8745114 12.0342512,26.6959432 C7.80169302,26.4112159 3.84908837,23.9818295 1.6263907,20.1226705 L12.1043907,19.9809205 C15.2800186,19.0868523 16.5503907,15.5142614 18.7023442,13.2996477 C20.5005767,11.7637159 23.3224837,12.7633295 25.6516,12.4786023" id="Fill-6" fill="#D41A19"></path>
                    <path d="M25.439307,16.1936795 C24.3460977,16.157475 23.1470744,16.3004523 22.1590744,16.0869068 C22.4759116,14.2999977 24.4863767,15.4432023 25.6515395,15.1210432 L25.439307,16.1936795 Z" id="Fill-8" fill="#D41A19"></path>
                    <path d="M24.6985488,18.765675 C23.2171535,18.7294705 21.6656186,18.8724477 20.2894326,18.657675 C20.3601767,18.1937659 20.6425488,17.8716068 20.9950605,17.5494477 L25.1224093,17.5494477 L24.6985488,18.765675 Z" id="Fill-10" fill="#D41A19"></path>
                </g>
            </g>
        </g>
    </g>
</svg>