<?xml version="1.0" encoding="UTF-8"?>
<svg width="14px" height="16px" viewBox="0 0 14 16" version="1.1" xmlns="http://www.w3.org/2000/svg" xmlns:xlink="http://www.w3.org/1999/xlink">
    <!-- Generator: Sketch 49 (51002) - http://www.bohemiancoding.com/sketch -->
    <title>Group</title>
    <desc>Created with Sketch.</desc>
    <defs>
        <polygon id="path-1" points="0.00117154812 0.0156206416 13.9961144 0.0156206416 13.9961144 16.0111381 0.00117154812 16.0111381"></polygon>
    </defs>
    <g id="Page-1" stroke="none" stroke-width="1" fill="none" fill-rule="evenodd" opacity="0.648660714">
        <g id="1-侧边栏" transform="translate(-24.000000, -151.000000)">
            <g id="Group-29">
                <g id="Group-51" transform="translate(0.000000, 80.000000)">
                    <g id="Group" transform="translate(24.000000, 71.000000)">
                        <mask id="mask-2" fill="white">
                            <use xlink:href="#path-1"></use>
                        </mask>
                        <g id="Clip-2"></g>
                        <path d="M7.49790795,8.64319386 L7.49790795,12.5121339 C7.49790795,12.7881702 7.27412273,13.0120335 6.99800837,13.0120335 C6.86460809,13.0147671 6.73587448,12.9629847 6.64160391,12.868636 C6.5472357,12.7742873 6.49545328,12.6455342 6.49820642,12.5121339 L6.49820642,8.64319386 L2.99920223,6.6238159 C2.76297908,6.48483124 2.68274756,6.18157601 2.81919386,5.94398605 C2.88409763,5.82843236 2.99293445,5.74408089 3.12108229,5.71014505 C3.2491325,5.67626778 3.38552022,5.69571548 3.49900418,5.76397768 L6.99800837,7.76347838 L10.4670404,5.76397768 C10.580622,5.69571548 10.7169902,5.67626778 10.84506,5.71014505 C10.9731102,5.74408089 11.0820446,5.82843236 11.1468703,5.94398605 C11.2833947,6.18157601 11.2031632,6.48483124 10.96694,6.6238159 L7.49790795,8.62321897 L7.49790795,8.64319386 Z" id="Fill-1" fill="#FFFFFF" mask="url(#mask-2)"></path>
                        <path d="M0,4.01452441 L0,12.0122343 L6.99800837,16.0111381 L13.9961144,12.0122343 L13.9961144,4.01452441 L6.99800837,0.0156206416 L0,4.01452441 Z M12.9964128,11.5124324 L6.99800837,15.0114365 L0.999701534,11.5124324 L0.999701534,4.51432636 L6.99800837,1.01532218 L12.9964128,4.51432636 L12.9964128,11.5124324 Z" id="Fill-3" fill="#FFFFFF" mask="url(#mask-2)"></path>
                    </g>
                </g>
            </g>
        </g>
    </g>
</svg>