<?xml version="1.0" encoding="UTF-8"?>
<svg width="14px" height="17px" viewBox="0 0 14 17" version="1.1" xmlns="http://www.w3.org/2000/svg" xmlns:xlink="http://www.w3.org/1999/xlink">
    <!-- Generator: Sketch 49 (51002) - http://www.bohemiancoding.com/sketch -->
    <title>Group</title>
    <desc>Created with Sketch.</desc>
    <defs>
        <polygon id="path-1" points="0.00119148936 0.015906383 13.9985305 0.015906383 13.9985305 16.2837078 0.00119148936 16.2837078"></polygon>
    </defs>
    <g id="Page-1" stroke="none" stroke-width="1" fill="none" fill-rule="evenodd">
        <g id="1-侧边栏" transform="translate(-24.000000, -99.000000)">
            <g id="Group-29">
                <g id="Group-51" transform="translate(0.000000, 80.000000)">
                    <g id="Group-3">
                        <g id="Group-43">
                            <g id="Group" transform="translate(24.000000, 19.000000)">
                                <g id="Group-3">
                                    <mask id="mask-2" fill="white">
                                        <use xlink:href="#path-1"></use>
                                    </mask>
                                    <g id="Clip-2"></g>
                                    <path d="M0.0082212766,8.14571631 C0.0082212766,5.90073191 0.0245049645,3.66396879 7.94326241e-05,1.4189844 C-0.00806241135,0.638161702 0.577594326,0.0362014184 1.36655887,0.0280595745 C2.58668369,0.0118553191 3.80670922,0.0118553191 5.02683404,0.0280595745 C5.78329078,0.0362014184 6.40961702,0.597432624 6.40145532,1.44342979 C6.38517163,5.90887376 6.38517163,10.3743972 6.40145532,14.8399206 C6.40145532,15.6776965 5.78329078,16.2633532 5.0105305,16.271495 C3.79864681,16.2877787 2.57854184,16.2877787 1.36655887,16.271495 C0.675177305,16.2633532 0.146533333,15.8241504 0.0245049645,15.2059858 C7.94326241e-05,15.0920993 7.94326241e-05,14.9782326 7.94326241e-05,14.864366 C0.0082212766,12.6356652 0.0082212766,10.3906809 0.0082212766,8.14571631 Z M0.870422695,8.162 L0.870422695,14.9049957 C0.870422695,15.1571149 0.951721986,15.295427 1.16325106,15.368644 C1.26897589,15.4011518 1.38286241,15.4174355 1.49672908,15.4174355 L4.03446241,15.4174355 C4.34357447,15.4174355 4.64456454,15.4255773 4.95359716,15.4174355 C5.34408794,15.4092936 5.52297021,15.2221901 5.52297021,14.8399206 L5.52297021,1.45963404 C5.52297021,1.08550638 5.35217021,0.898402837 4.97804255,0.898402837 C3.78236312,0.890260993 2.58668369,0.890260993 1.39100426,0.898402837 C1.03308085,0.898402837 0.862280851,1.08550638 0.862280851,1.43528794 C0.870422695,3.67203121 0.870422695,5.9170156 0.870422695,8.162 Z M7.6377844,8.14571631 L7.6377844,1.50842553 C7.6377844,0.605574468 8.18279149,0.0606468085 9.07750071,0.0525049645 L12.5588142,0.0525049645 C12.7214723,0.0525049645 12.8922922,0.0768510638 13.0550298,0.125721986 C13.6487489,0.296541844 13.9985305,0.776394326 13.9985305,1.39455887 L13.9985305,14.8805702 C13.9985305,15.5882553 13.453583,16.1901163 12.7459177,16.2064199 C11.4607177,16.2308454 10.1755972,16.2227035 8.89039716,16.2064199 C8.32918582,16.1982582 7.62972199,15.7264879 7.6377844,14.8480624 C7.65408794,12.6193816 7.6377844,10.382539 7.6377844,8.14571631 Z M13.1363291,8.15385816 L13.1363291,1.48407943 C13.1363291,1.1017305 12.9655092,0.922848227 12.5750979,0.922848227 L9.06121702,0.922848227 C8.67894752,0.922848227 8.50812766,1.1017305 8.50812766,1.49222128 L8.50812766,14.7992709 C8.50812766,15.1815404 8.67080567,15.3523603 9.05315461,15.3523603 L12.6076057,15.3523603 C12.9736511,15.3523603 13.1444709,15.1652567 13.1444709,14.8074128 C13.1363291,12.5949362 13.1363291,10.3743972 13.1363291,8.15385816 Z" id="Fill-1" fill="#FFFFFF" opacity="0.649999976" mask="url(#mask-2)"></path>
                                </g>
                                <path d="M2.12038226,6.55249944 L2.12038226,3.57737612 C2.12038226,3.49844051 2.12038226,3.42738496 2.12841137,3.34850715 C2.15251831,3.15907708 2.32095356,3.01706233 2.52146611,3.00126364 C2.71400829,2.98546496 2.90647214,3.11963817 2.94663732,3.3011689 C2.97064634,3.38794606 2.97064634,3.47472321 2.97064634,3.56157744 L2.97064634,9.55923939 C2.97064634,9.63811721 2.97064634,9.72495216 2.94663732,9.80382998 C2.89852135,10.0011594 2.72203741,10.1273755 2.51343699,10.1116538 C2.31292444,10.0958359 2.15251831,9.96164342 2.12841137,9.76439107 C2.12038226,9.6933548 2.12038226,9.62237632 2.12038226,9.55134005 L2.12038226,6.55249944 Z M3.45196263,12.289695 C3.45196263,12.6763775 3.12310168,13 2.72203741,13 C2.32900226,13 1.99209261,12.6685552 2.00014131,12.2818535 C2.00809209,11.9029934 2.32900226,11.5873472 2.72203741,11.5794479 C3.11507256,11.5794479 3.45196263,11.9029934 3.45196263,12.289695 Z M10.5347419,6.57621673 C10.5347419,7.59419142 10.5347419,8.61222391 10.5267128,9.63811721 C10.5267128,9.75649173 10.4785969,9.89068421 10.406374,9.98536071 C10.3021129,10.1273755 10.1336777,10.1431741 9.97325197,10.0958359 C9.81284585,10.0484976 9.72456471,9.93012312 9.69250698,9.76439107 C9.68447787,9.71705282 9.68447787,9.66181523 9.68447787,9.60657764 L9.68447787,3.41948562 C9.7005361,3.18279437 9.87702005,3.00916298 10.1096491,3.00916298 C10.3421998,3.00916298 10.5347419,3.19069371 10.5347419,3.43528431 C10.5427711,3.82198599 10.5347419,4.21656774 10.5347419,4.60325015 L10.5347419,6.57621673 Z M9.56415858,12.289695 C9.56415858,11.9029934 9.90104865,11.5794479 10.2940838,11.5873472 C10.687119,11.5952658 11,11.9108927 11,12.289695 C11,12.6842768 10.671139,13 10.2781039,13 C9.88504917,13 9.56415858,12.6763775 9.56415858,12.289695 Z" id="Fill-4" fill="#FFFFFF" opacity="0.649999976"></path>
                            </g>
                        </g>
                    </g>
                </g>
            </g>
        </g>
    </g>
</svg>